<svg width="2838" height="3482" viewBox="0 0 2838 3482" fill="none" xmlns="http://www.w3.org/2000/svg">
<ellipse cx="1470.74" cy="2103.5" rx="1128" ry="1145.5" fill="#C9BBAC"/>
<path d="M2600 1996.95C2600 2582.72 2089.16 3027 1466 3027C842.84 3027 344 2619.41 344 2033.63C344 1447.86 849.171 973 1472.33 973C2095.49 973 2600 1411.17 2600 1996.95Z" fill="#FFF5EB"/>
<path opacity="0.8" d="M2244.5 1207.5C2395 1037 2486.93 935.435 2552 1003.79C2579.33 1032.5 2605.5 1034.5 2373.5 1339C2141.5 1643.5 1486.85 2288.32 828.999 2841.5C587.499 3034.17 414.389 3182.53 332.499 3096.5C249.629 3009.44 255.999 2975 512.499 2773.5" stroke="#FA8613" stroke-width="70" stroke-linecap="square"/>
<path opacity="0.8" d="M507.014 1425.72C324.112 1290.57 212.927 1210.53 163.638 1291.01C142.937 1324.81 117.766 1332.25 408.45 1581.35C699.135 1830.44 1474.43 2323.67 2233.64 2726.63C2510.17 2864.39 2710.53 2973.16 2772.57 2871.87C2835.34 2769.37 2821.89 2737.03 2528.85 2593.79" stroke="#FA8613" stroke-width="70" stroke-linecap="square"/>
<path d="M917.704 2299.17C917.704 2299.17 939.591 2210.09 1003.68 2209.58C1067.78 2209.08 1077.99 2273.85 1077.99 2273.85" stroke="#783C00" stroke-width="54.9028" stroke-linecap="round" stroke-linejoin="round"/>
<path d="M1964.48 2255.17C1964.48 2255.17 1942.59 2166.09 1878.5 2165.58C1814.41 2165.08 1804.19 2229.85 1804.19 2229.85" stroke="#783C00" stroke-width="54.9028" stroke-linecap="round" stroke-linejoin="round"/>
<path d="M741.935 1273.93C1045.75 991.614 1566.97 872.068 2048.97 1149.97C1831.53 1442.76 1598.36 1530.26 1374.25 1518.05C1152.83 1505.99 934.633 1396.42 741.935 1273.93Z" fill="#FA8613" stroke="#FA8613" stroke-width="70"/>
<path d="M1375.28 991.733C1595.18 975.978 1824.56 1017.8 1994.32 1122.03L2024.09 1140.32L2000.88 1166.43C1781.65 1413.1 1560.85 1478.49 1353.46 1459.1C1149.36 1440.03 960.974 1338.74 806.837 1261.15L769.573 1242.39L799.882 1213.73C940.117 1081.1 1155.57 1007.47 1375.28 991.733Z" fill="#FFBA75" stroke="#FFBA75" stroke-width="58.555"/>
<ellipse cx="1384.92" cy="1044.47" rx="158.5" ry="54" fill="#FA8613"/>
<path d="M1268.89 465.94L1300.39 998.939C1363.19 1080.54 1422.22 1032.94 1443.89 998.939C1434.39 864.773 1415.39 567.74 1415.39 452.94C1530.98 415.34 1496.25 261.136 1472.42 234.97C1428.92 190.47 1314.72 128.17 1205.92 234.97C1097.12 341.77 1207.89 464.273 1268.89 465.94Z" fill="#FFE1C4" stroke="#FF7D00" stroke-width="40"/>
<path d="M1417.5 2693.94C1423.45 2695.71 1435.33 2702.85 1448.48 2707.05C1463.42 2711.82 1472.95 2713.02 1490.52 2713.33C1501.78 2713.53 1515.87 2706.5 1526.35 2699.92C1530.23 2698.12 1533.82 2696.33 1537.39 2693.95C1539.19 2692.75 1540.96 2691.57 1542.79 2690.36" stroke="#783C00" stroke-width="70" stroke-linecap="round"/>
<path d="M1461.08 2706.65C1457.77 2706.4 1453.18 2705.88 1446.02 2705.25C1431.23 2703.93 1420.43 2702.57 1415.18 2700.52C1407.89 2697.67 1401.51 2696.93 1393.57 2693.87C1388.54 2691.93 1383.07 2689.52 1379.74 2687.98C1376.25 2686.37 1373.6 2684.15 1370.53 2682.1C1367.27 2679.93 1363.62 2678.51 1360.55 2676.85C1357.47 2675.19 1352.89 2672.63 1350.17 2670.71C1344.82 2666.92 1367.4 2668.8 1378 2665.99C1393.65 2661.84 1407.07 2660.6 1413.95 2660.09C1418.07 2659.79 1423.37 2658.57 1439.4 2657.42C1455.44 2656.26 1482.04 2655 1502.57 2653.71C1523.11 2652.42 1536.79 2651.16 1544.47 2650.38C1556.5 2649.16 1562.12 2648.58 1568 2648.19C1574.15 2647.79 1583.35 2648.06 1594.46 2648.7C1596.7 2648.83 1597.18 2649.84 1597.31 2650.61C1597.97 2654.39 1590.32 2661.32 1585.19 2667.86C1580.03 2674.45 1573.92 2677.48 1570.36 2680.15C1554.63 2691.96 1543.22 2694.88 1538.11 2697.55C1531.06 2701.26 1526.35 2703.56 1522.12 2706.64C1517.47 2710.01 1511.52 2712.01 1496.83 2718.14C1487.34 2722.1 1477.26 2722 1471.2 2720.47C1467.57 2719.56 1465.7 2716.12 1461.61 2715.61C1455.88 2714.89 1437.2 2710.78 1426.3 2708.19C1418.84 2706.41 1408.15 2702.57 1403.92 2700.64C1398.46 2698.17 1393.56 2696.93 1389.84 2695.78C1386.5 2694.74 1383.58 2692.85 1379.74 2690.41C1375.35 2687.63 1372.06 2684.15 1368.99 2682.1C1368.22 2681.58 1367.46 2681.08 1366.69 2680.56C1365.92 2680.05 1365.16 2679.54 1364.37 2679.02" stroke="#783C00" stroke-width="70" stroke-linecap="round"/>
<path d="M1354.35 2670.27C1352.28 2669.06 1350.21 2668.71 1348.13 2669.32C1345.78 2670 1344.67 2671.82 1344.15 2672.86C1343.91 2673.35 1343.98 2673.89 1344.23 2674.24C1345.42 2675.86 1348.8 2676.48 1352.09 2678.39C1354.44 2679.75 1361.38 2683.38 1367.99 2687.12C1371 2688.82 1373.87 2689.63 1377.5 2690.5C1380.81 2691.29 1384.59 2692.74 1387.1 2693.43C1390.92 2694.49 1395.31 2697.23 1398 2698.36C1400.82 2699.55 1404.64 2700.86 1408.8 2702.85C1413.11 2704.92 1417.1 2705.54 1420.47 2707.43C1424.69 2709.81 1428.84 2710.38 1432.14 2711.24C1435.22 2712.06 1438.71 2712.63 1443.19 2713.66C1450.29 2715.3 1453.92 2715.39 1460.91 2716C1464.35 2716.3 1466.37 2717.29 1469.74 2717.56C1471.04 2717.81 1475.85 2717.99 1482.68 2717.82C1485.22 2717.65 1485.91 2717.3 1487.13 2716.95" stroke="#783C00" stroke-width="70" stroke-linecap="round"/>
</svg>
