<svg width="2834" height="3290" viewBox="0 0 2834 3290" fill="none" xmlns="http://www.w3.org/2000/svg">
<ellipse cx="1471" cy="1911.5" rx="1128" ry="1145.5" fill="#C9BBAC"/>
<path d="M2599 1872.2C2599 2505.03 2088.16 2985 1465 2985C841.84 2985 343 2544.66 343 1911.84C343 1279.01 848.171 766 1471.33 766C2094.49 766 2599 1239.37 2599 1872.2Z" fill="#FFF5EB"/>
<path opacity="0.8" d="M2194 975.5C2344.5 805 2428.85 872.773 2493.92 941.13C2560.13 1010.7 2538.06 1153.87 2447.06 1338C2319.05 1596.99 2054.67 1937.01 1707.77 2267.22C1419.24 2541.86 1126.73 2759.15 884 2890.72C627.408 3029.8 426.428 3073.08 344.538 2987.05C261.668 2899.99 243 2757.5 499.5 2556" stroke="#FA8613" stroke-width="70" stroke-linecap="square"/>
<path opacity="0.8" d="M540.283 1220.17C360.114 1081.39 276.79 1157.9 225.906 1237.38C174.121 1318.27 223.009 1454.64 347.361 1618.11C522.268 1848.04 846.473 2131.6 1249.82 2389.83C1585.3 2604.61 1913.78 2762.33 2177.1 2845.35C2455.45 2933.11 2661 2937.4 2725.04 2837.37C2789.85 2736.14 2791.13 2609.56 2501 2460.5" stroke="#FA8613" stroke-width="70" stroke-linecap="square"/>
<ellipse cx="951.954" cy="2490.32" rx="74.5" ry="191.5" transform="rotate(-4.08559 951.954 2490.32)" fill="#783C00"/>
<ellipse cx="74.5" cy="191.5" rx="74.5" ry="191.5" transform="matrix(-0.997459 -0.0712465 -0.0712465 0.997459 1993.91 2265.62)" fill="#783C00"/>
<path d="M709.912 1113.5C1017.32 797.795 1564.02 676.981 2051.82 959.48C1920.2 1173.18 1789.85 1305.58 1665.31 1381.06C1535.82 1459.53 1410.95 1477.53 1293.3 1459.62C1067.14 1425.21 864.144 1257.88 709.912 1113.5Z" fill="#FA8613" stroke="#FA8613" stroke-width="70"/>
<path d="M1318.41 805.604C1541.4 770.236 1782.56 795.734 1985.18 913.169L2010.91 928.082L1995.6 953.575C1887.25 1133.96 1775.37 1250.85 1662.01 1319.65C1548.14 1388.77 1434.33 1408.39 1324.58 1396.69C1107.84 1373.59 908.479 1228.03 754.012 1112.98L726.253 1092.31L751.244 1068.36C887.802 937.514 1095.64 840.938 1318.41 805.604Z" fill="#FFBA75" stroke="#FFBA75" stroke-width="58.555"/>
<ellipse cx="1379.5" cy="962" rx="158.5" ry="87" fill="#FA8613"/>
<path d="M1276.73 404.47L1308.23 937.47C1371.03 1019.07 1430.06 971.47 1451.73 937.47C1442.23 803.303 1423.23 506.27 1423.23 391.47C1538.82 353.87 1520.06 292.136 1496.23 265.97C1452.73 221.47 1338.53 159.17 1229.73 265.97C1120.93 372.77 1215.73 402.803 1276.73 404.47Z" fill="#FFE1C4" stroke="#FF7D00" stroke-width="40"/>
<path d="M1347.83 2800.3C1353.77 2802.07 1365.66 2809.21 1378.8 2813.41C1393.75 2818.18 1403.28 2819.37 1420.85 2819.69C1432.11 2819.89 1446.2 2812.86 1456.68 2806.28C1460.55 2804.48 1464.15 2802.69 1467.72 2800.31C1469.52 2799.11 1471.29 2797.93 1473.12 2796.72" stroke="#783C00" stroke-width="70" stroke-linecap="round"/>
</svg>
