<svg width="6723" height="1080" viewBox="0 0 6723 1080" fill="none" xmlns="http://www.w3.org/2000/svg">
<path d="M571.727 528.233C621.936 537.594 663.21 562.699 695.548 603.547C727.886 644.395 744.055 691.2 744.055 743.963C744.055 791.619 732.141 833.744 708.313 870.337C685.336 906.08 651.721 934.163 607.469 954.587C563.217 975.011 510.88 985.223 450.458 985.223H66.2289V94.2197H433.864C494.285 94.2197 546.196 104.006 589.598 123.579C633.85 143.153 667.039 170.385 689.165 205.276C712.143 240.167 723.631 279.739 723.631 323.991C723.631 375.903 709.59 419.304 681.506 454.195C654.274 489.087 617.681 513.766 571.727 528.233ZM244.94 461.854H408.333C450.884 461.854 483.647 452.493 506.625 433.771C529.602 414.198 541.09 386.54 541.09 350.798C541.09 315.056 529.602 287.398 506.625 267.825C483.647 248.252 450.884 238.465 408.333 238.465H244.94V461.854ZM424.928 839.701C468.329 839.701 501.944 829.489 525.772 809.065C550.451 788.641 562.791 759.706 562.791 722.262C562.791 683.967 550.026 654.182 524.496 632.907C498.966 610.78 464.5 599.717 421.098 599.717H244.94V839.701H424.928ZM2368.12 278.037V985.223H2188.14V895.867C2165.16 926.504 2134.95 950.757 2097.5 968.629C2060.91 985.649 2020.91 994.159 1977.51 994.159C1922.2 994.159 1873.26 982.67 1830.71 959.693C1788.16 935.865 1754.55 901.399 1729.87 856.296C1706.04 810.341 1694.13 755.877 1694.13 692.902V278.037H1872.84V667.372C1872.84 723.539 1886.88 766.94 1914.96 797.576C1943.05 827.361 1981.34 842.254 2029.85 842.254C2079.21 842.254 2117.93 827.361 2146.01 797.576C2174.09 766.94 2188.14 723.539 2188.14 667.372V278.037H2368.12ZM2936.34 267.825C3020.59 267.825 3088.67 294.632 3140.58 348.245C3192.49 401.007 3218.45 475.045 3218.45 570.358V985.223H3039.74V594.611C3039.74 538.445 3025.7 495.469 2997.61 465.684C2969.53 435.048 2931.23 419.73 2882.73 419.73C2833.37 419.73 2794.22 435.048 2765.29 465.684C2737.2 495.469 2723.16 538.445 2723.16 594.611V985.223H2544.45V278.037H2723.16V366.116C2746.99 335.48 2777.2 311.652 2813.8 294.632C2851.24 276.76 2892.09 267.825 2936.34 267.825ZM3342.44 629.077C3342.44 557.593 3356.48 494.193 3384.56 438.877C3413.5 383.562 3452.65 341.011 3502 311.226C3551.36 281.441 3606.25 266.548 3666.67 266.548C3712.63 266.548 3756.45 276.76 3798.15 297.185C3839.85 316.758 3873.04 343.139 3897.72 376.328V40.6063H4078.99V985.223H3897.72V880.549C3875.6 915.441 3844.53 943.524 3804.54 964.799C3764.54 986.074 3718.16 996.712 3665.4 996.712C3605.83 996.712 3551.36 981.394 3502 950.757C3452.65 920.121 3413.5 877.145 3384.56 821.83C3356.48 765.664 3342.44 701.413 3342.44 629.077ZM3899 631.63C3899 588.229 3890.49 551.21 3873.47 520.574C3856.45 489.087 3833.47 465.258 3804.54 449.089C3775.6 432.069 3744.54 423.559 3711.35 423.559C3678.16 423.559 3647.53 431.644 3619.44 447.813C3591.36 463.982 3568.38 487.81 3550.51 519.297C3533.49 549.933 3524.98 586.527 3524.98 629.077C3524.98 671.627 3533.49 709.072 3550.51 741.41C3568.38 772.897 3591.36 797.151 3619.44 814.171C3648.38 831.191 3679.01 839.701 3711.35 839.701C3744.54 839.701 3775.6 831.617 3804.54 815.447C3833.47 798.427 3856.45 774.599 3873.47 743.963C3890.49 712.476 3899 675.031 3899 631.63ZM4432.24 40.6063V985.223H4253.53V40.6063H4432.24ZM5266.21 616.312C5266.21 641.842 5264.51 664.819 5261.1 685.243H4744.12C4748.37 736.304 4766.24 776.301 4797.73 805.235C4829.22 834.17 4867.94 848.637 4913.89 848.637C4980.27 848.637 5027.5 820.128 5055.59 763.111H5248.34C5227.91 831.191 5188.77 887.357 5130.9 931.61C5073.03 975.011 5001.97 996.712 4917.72 996.712C4849.64 996.712 4788.37 981.819 4733.9 952.034C4680.29 921.398 4638.17 878.422 4607.53 823.106C4577.75 767.791 4562.85 703.966 4562.85 631.63C4562.85 558.444 4577.75 494.193 4607.53 438.877C4637.32 383.562 4679.02 341.011 4732.63 311.226C4786.24 281.441 4847.94 266.548 4917.72 266.548C4984.95 266.548 5044.95 281.015 5097.71 309.95C5151.32 338.884 5192.6 380.158 5221.53 433.771C5251.32 486.534 5266.21 547.38 5266.21 616.312ZM5081.12 565.252C5080.26 519.297 5063.67 482.704 5031.33 455.472C4998.99 427.389 4959.42 413.347 4912.62 413.347C4868.36 413.347 4830.92 426.963 4800.28 454.195C4770.5 480.576 4752.2 517.595 4745.39 565.252H5081.12ZM5667.27 996.712C5609.4 996.712 5557.49 986.5 5511.54 966.076C5465.58 944.8 5428.99 916.292 5401.76 880.549C5375.38 844.807 5360.91 805.235 5358.36 761.834H5538.34C5541.75 789.066 5554.94 811.618 5577.92 829.489C5601.74 847.36 5631.1 856.296 5666 856.296C5700.04 856.296 5726.42 849.488 5745.14 835.872C5764.71 822.255 5774.5 804.81 5774.5 783.535C5774.5 760.558 5762.58 743.537 5738.76 732.474C5715.78 720.56 5678.76 707.795 5627.7 694.179C5574.94 681.414 5531.54 668.223 5497.5 654.607C5464.31 640.991 5435.37 620.141 5410.69 592.058C5386.87 563.975 5374.95 526.105 5374.95 478.449C5374.95 439.303 5386.01 403.56 5408.14 371.222C5431.12 338.884 5463.46 313.354 5505.16 294.632C5547.71 275.909 5597.49 266.548 5654.51 266.548C5738.76 266.548 5805.99 287.824 5856.2 330.374C5906.4 372.073 5934.06 428.665 5939.17 500.15H5768.12C5765.56 472.066 5753.65 449.94 5732.37 433.771C5711.95 416.751 5684.29 408.241 5649.4 408.241C5617.06 408.241 5591.96 414.198 5574.09 426.112C5557.07 438.026 5548.56 454.621 5548.56 475.896C5548.56 499.724 5560.47 518.021 5584.3 530.786C5608.13 542.7 5645.15 555.04 5695.36 567.805C5746.42 580.57 5788.54 593.76 5821.73 607.376C5854.92 620.992 5883.43 642.268 5907.26 671.202C5931.94 699.285 5944.7 736.729 5945.55 783.535C5945.55 824.383 5934.06 860.976 5911.09 893.314C5888.96 925.653 5856.62 951.183 5814.07 969.905C5772.37 987.776 5723.44 996.712 5667.27 996.712ZM6362.87 996.712C6305 996.712 6253.09 986.5 6207.14 966.076C6161.18 944.8 6124.59 916.292 6097.36 880.549C6070.98 844.807 6056.51 805.235 6053.96 761.834H6233.94C6237.35 789.066 6250.54 811.618 6273.51 829.489C6297.34 847.36 6326.7 856.296 6361.59 856.296C6395.63 856.296 6422.02 849.488 6440.74 835.872C6460.31 822.255 6470.1 804.81 6470.1 783.535C6470.1 760.558 6458.18 743.537 6434.35 732.474C6411.38 720.56 6374.36 707.795 6323.3 694.179C6270.54 681.414 6227.13 668.223 6193.09 654.607C6159.91 640.991 6130.97 620.141 6106.29 592.058C6082.46 563.975 6070.55 526.105 6070.55 478.449C6070.55 439.303 6081.61 403.56 6103.74 371.222C6126.72 338.884 6159.05 313.354 6200.75 294.632C6243.3 275.909 6293.09 266.548 6350.11 266.548C6434.35 266.548 6501.58 287.824 6551.79 330.374C6602 372.073 6629.66 428.665 6634.77 500.15H6463.71C6461.16 472.066 6449.25 449.94 6427.97 433.771C6407.55 416.751 6379.89 408.241 6345 408.241C6312.66 408.241 6287.56 414.198 6269.69 426.112C6252.67 438.026 6244.15 454.621 6244.15 475.896C6244.15 499.724 6256.07 518.021 6279.9 530.786C6303.73 542.7 6340.74 555.04 6390.95 567.805C6442.01 580.57 6484.14 593.76 6517.33 607.376C6550.52 620.992 6579.03 642.268 6602.85 671.202C6627.53 699.285 6640.3 736.729 6641.15 783.535C6641.15 824.383 6629.66 860.976 6606.68 893.314C6584.56 925.653 6552.22 951.183 6509.67 969.905C6467.97 987.776 6419.04 996.712 6362.87 996.712Z" fill="#2B2B2B"/>
<path d="M1169.58 837.948C1228.38 888.844 1295.23 934.935 1370.43 971.461C1319.8 995.603 1263.12 1009.12 1203.29 1009.12C1110.03 1009.12 1024.44 976.288 957.451 921.552C1033.87 899.954 1104.7 871.132 1169.58 837.948ZM910.617 222.11C941.459 212.636 974.128 229.749 983.963 260.38L984.191 261.105L985.414 265.039C1011.67 348.404 1073.3 479.616 1173.17 600.167C1180.61 609.143 1188.24 618.04 1196.07 626.84C1338.48 532.653 1435.46 421.134 1476.89 355.982C1494.34 328.542 1530.73 320.442 1558.17 337.89C1585.61 355.339 1593.71 391.729 1576.26 419.17C1529.89 492.094 1428.89 609.391 1281.52 711.232C1365.32 783.469 1465.84 841.441 1583.82 868.914L1587.94 869.859L1588.68 870.032C1619.97 877.522 1639.5 908.802 1632.39 940.272C1625.28 971.742 1594.19 991.579 1562.72 984.884L1561.98 984.72L1559.53 984.164C1404.93 948.69 1278.05 869.614 1177.17 775.809C1083.02 827.584 974.796 870.298 853.953 893.316C822.009 899.401 791.18 878.437 785.096 846.493C779.011 814.549 799.974 783.721 831.918 777.636C927.896 759.355 1015.16 726.952 1092.61 687.336C1089.19 683.33 1085.82 679.315 1082.49 675.292C971.344 541.129 902.473 394.9 872.327 297.964L871.622 295.683L871.403 294.954C862.348 264.085 879.776 231.584 910.617 222.11ZM1575.65 507.988C1586.36 543.545 1592.11 581.249 1592.11 620.298C1592.11 687.148 1575.24 750.058 1545.52 805.003C1488.07 786.291 1435.24 759.586 1386.95 727.255C1395.59 712.445 1402.49 696.495 1407.38 679.686C1478.49 619.95 1535 559.484 1575.65 507.988ZM866.65 425.603C896.977 492.579 938.535 567.594 991.87 641.814C992.997 653.024 994.996 663.977 997.797 674.603C945.336 696.261 888.958 714.01 828.987 725.919C819.529 692.334 814.468 656.907 814.468 620.298C814.468 549.359 833.466 482.858 866.65 425.603ZM1203.29 231.474C1294.1 231.474 1377.64 262.605 1443.81 314.776C1440.11 318.997 1436.68 323.557 1433.57 328.444C1413.62 359.83 1379.11 403.522 1331.51 450.83C1295.87 423.824 1251.45 407.801 1203.29 407.801C1171.81 407.801 1141.93 414.646 1115.05 426.93C1080.42 367.282 1055.61 311.267 1040.22 267.219C1089.82 244.277 1145.06 231.474 1203.29 231.474Z" fill="#2B2B2B"/>
</svg>
